<?xml version="1.0" encoding="UTF-8" standalone="no"?>
<!-- Created with Inkscape (http://www.inkscape.org/) -->

<svg
   xmlns:dc="http://purl.org/dc/elements/1.1/"
   xmlns:cc="http://creativecommons.org/ns#"
   xmlns:rdf="http://www.w3.org/1999/02/22-rdf-syntax-ns#"
   xmlns:svg="http://www.w3.org/2000/svg"
   xmlns="http://www.w3.org/2000/svg"
   xmlns:xlink="http://www.w3.org/1999/xlink"
   xmlns:sodipodi="http://sodipodi.sourceforge.net/DTD/sodipodi-0.dtd"
   xmlns:inkscape="http://www.inkscape.org/namespaces/inkscape"
   width="11"
   height="11"
   id="svg2"
   version="1.1"
   inkscape:version="0.92.2 (5c3e80d, 2017-08-06)"
   sodipodi:docname="plus.svg"
   viewBox="0 0 11 10.999999">
  <defs
     id="defs4">
    <linearGradient
       id="linearGradient825"
       inkscape:collect="always">
      <stop
         id="stop821"
         offset="0"
         style="stop-color:#000000;stop-opacity:0.19607843" />
      <stop
         id="stop823"
         offset="1"
         style="stop-color:#000000;stop-opacity:0.01877934" />
    </linearGradient>
    <linearGradient
       gradientTransform="matrix(0.8571422,0,0,0.96666639,-149.30398,-218.68847)"
       y2="216.73969"
       x2="965.93829"
       y1="246.73969"
       x1="965.93829"
       gradientUnits="userSpaceOnUse"
       id="linearGradient831"
       xlink:href="#linearGradient825"
       inkscape:collect="always" />
  </defs>
  <sodipodi:namedview
     id="base"
     pagecolor="#ffffff"
     bordercolor="#c0c0c0"
     borderopacity="1"
     inkscape:pageopacity="0.0"
     inkscape:pageshadow="2"
     inkscape:zoom="41.755278"
     inkscape:cx="6.7698296"
     inkscape:cy="3.106539"
     inkscape:document-units="mm"
     inkscape:current-layer="layer1"
     showgrid="true"
     showguides="true"
     inkscape:guide-bbox="true"
     inkscape:object-nodes="true"
     guidecolor="#0092ff"
     guideopacity="0.49803922"
     guidehicolor="#ff5200"
     guidehiopacity="0.49803922"
     fit-margin-top="0"
     fit-margin-left="0"
     fit-margin-right="0"
     fit-margin-bottom="0"
     inkscape:snap-global="true"
     inkscape:window-width="1680"
     inkscape:window-height="939"
     inkscape:window-x="0"
     inkscape:window-y="23"
     inkscape:window-maximized="0"
     borderlayer="true"
     units="px"
     inkscape:snap-page="true"
     inkscape:snap-bbox="true"
     inkscape:snap-nodes="true"
     inkscape:bbox-nodes="true"
     inkscape:pagecheckerboard="false">
    <inkscape:grid
       type="xygrid"
       id="grid1116"
       originx="-154.5"
       originy="27.499998"
       spacingx="0.49999998"
       spacingy="0.49999998" />
  </sodipodi:namedview>
  <metadata
     id="metadata7">
    <rdf:RDF>
      <cc:Work
         rdf:about="">
        <dc:format>image/svg+xml</dc:format>
        <dc:type
           rdf:resource="http://purl.org/dc/dcmitype/StillImage" />
        <dc:title></dc:title>
        <dc:creator>
          <cc:Agent>
            <dc:title>Pablo Gil</dc:title>
          </cc:Agent>
        </dc:creator>
        <dc:subject>
          <rdf:Bag>
            <rdf:li>SVG</rdf:li>
            <rdf:li>template</rdf:li>
          </rdf:Bag>
        </dc:subject>
      </cc:Work>
    </rdf:RDF>
  </metadata>
  <g
     inkscape:label="Capa 1"
     inkscape:groupmode="layer"
     id="layer1"
     transform="translate(-730.14252,-13.326488)">
    <path
       style="opacity:1;vector-effect:none;fill:#ffffff;fill-opacity:0.23529412;fill-rule:evenodd;stroke:none;stroke-width:3.77952766;stroke-linecap:butt;stroke-linejoin:miter;stroke-miterlimit:4;stroke-dasharray:none;stroke-dashoffset:0;stroke-opacity:1"
       d="M 2 1 C 1.43735 1 1 1.437351 1 2 L 1 9 C 1 9.562649 1.43735 10 2 10 L 9 10 C 9.56265 10 10 9.562649 10 9 L 10 2 C 10 1.437351 9.56265 1 9 1 L 2 1 z M 5.4921875 1.9921875 A 0.50083752 0.50083752 0 0 1 6 2.5 L 6 5 L 8.5 5 A 0.50097659 0.50097659 0 1 1 8.5 6.0019531 L 6 6.0019531 L 6 8.5 A 0.50083752 0.50083752 0 1 1 5 8.5 L 5 6.0019531 L 2.5 6.0019531 A 0.50097659 0.50097659 0 1 1 2.5 5 L 5 5 L 5 2.5 A 0.50083752 0.50083752 0 0 1 5.4921875 1.9921875 z "
       transform="translate(730.14252,13.326488)"
       id="rect824" />
    <rect
       style="opacity:1;vector-effect:none;fill:none;fill-opacity:0.57203387;fill-rule:evenodd;stroke:#000000;stroke-width:0.99999994;stroke-linecap:butt;stroke-linejoin:miter;stroke-miterlimit:4;stroke-dasharray:none;stroke-dashoffset:0;stroke-opacity:0.39215687"
       id="rect1810"
       width="10.000003"
       height="9.999999"
       x="730.64252"
       y="13.826488"
       ry="1.5000012" />
    <path
       style="color:#000000;font-style:normal;font-variant:normal;font-weight:normal;font-stretch:normal;font-size:medium;line-height:normal;font-family:sans-serif;font-variant-ligatures:normal;font-variant-position:normal;font-variant-caps:normal;font-variant-numeric:normal;font-variant-alternates:normal;font-feature-settings:normal;text-indent:0;text-align:start;text-decoration:none;text-decoration-line:none;text-decoration-style:solid;text-decoration-color:#000000;letter-spacing:normal;word-spacing:normal;text-transform:none;writing-mode:lr-tb;direction:ltr;text-orientation:mixed;dominant-baseline:auto;baseline-shift:baseline;text-anchor:start;white-space:normal;shape-padding:0;clip-rule:nonzero;display:inline;overflow:visible;visibility:visible;opacity:1;isolation:auto;mix-blend-mode:normal;color-interpolation:sRGB;color-interpolation-filters:linearRGB;solid-color:#000000;solid-opacity:1;vector-effect:none;fill:#000000;fill-opacity:0.39215687;fill-rule:nonzero;stroke:none;stroke-width:1.00157475;stroke-linecap:round;stroke-linejoin:round;stroke-miterlimit:4;stroke-dasharray:none;stroke-dashoffset:0;stroke-opacity:1;color-rendering:auto;image-rendering:auto;shape-rendering:auto;text-rendering:auto;enable-background:accumulate"
       d="M 5.4921875 1.9921875 A 0.50083748 0.50083748 0 0 0 5 2.5 L 5 5 L 2.5 5 A 0.50097652 0.50097652 0 1 0 2.5 6.0019531 L 5 6.0019531 L 5 8.5 A 0.50083748 0.50083748 0 1 0 6 8.5 L 6 6.0019531 L 8.5 6.0019531 A 0.50097652 0.50097652 0 1 0 8.5 5 L 6 5 L 6 2.5 A 0.50083748 0.50083748 0 0 0 5.4921875 1.9921875 z "
       transform="translate(730.14252,13.326488)"
       id="path1812" />
  </g>
</svg>
